<svg width="1027" height="512" viewBox="0 0 1027 512" fill="none" xmlns="http://www.w3.org/2000/svg">
<path d="M141.6 328.5C117.9 330.5 95.7 326.9 74.9 317.5C54.1 307.9 37 293.8 23.7 275.3C10.6 256.4 2.90002 234.6 0.800017 209.7C-1.29998 184.8 2.60002 162.1 12.4 141.5C22.5 120.7 36.9 103.9 55.8 91.3C74.7 78.7 96.1 71.2 119.7 69.2C143.6 67.2 165.8 70.8 186.4 80.2C207.2 89.5 224.1 103.6 237.3 122.5C250.4 141.2 258.1 162.9 260.2 187.8C262.3 212.7 258.4 235.5 248.6 256.3C238.8 276.9 224.5 293.7 205.5 306.5C186.6 319.1 165.3 326.5 141.6 328.5ZM136.1 263.2C154 261.7 167.7 254.6 177 242.1C186.6 229.4 190.4 213.4 188.8 193.7C187.1 173.6 180.5 158.3 169.1 147.7C157.8 136.8 143.2 132.1 125.3 133.6C107.2 135.1 93.4 142.2 84.1 154.7C74.8 167 71 183.3 72.7 203.3C74.4 223.1 80.9 238.5 92.1 249.3C103.2 260.2 118 264.7 136.1 263.2ZM348 38.8L367.8 304.5L297.4 309.7L277.6 44L348 38.8ZM387.2 200.2C385.7 179.4 388.1 160.9 394.4 144.8C400.9 128.7 410.3 116 422.7 106.6C435.3 97.3 449.5 92 465.6 90.8C479.5 89.8 491.6 91.7 502.1 96.5C512.6 101.3 520.9 108.2 527.1 117L525.1 89L595.5 83.9L610.2 285.4L539.8 290.5L537.8 262.5C533 272.3 525.7 280.2 515.7 286.5C506 292.7 494.4 296.4 480.8 297.4C464.7 298.6 449.9 295.4 436.1 288C422.5 280.6 411.4 269.3 402.6 254.3C393.8 239.1 388.7 221.1 387.2 200.2ZM532.4 192.4C532.4 179.4 528.8 169.2 521.6 161.8C514.6 154.4 506 150.6 495.7 150.6C485.1 150.6 476.4 154.3 469.4 161.8C462.4 169 459 179.2 459 192.4C459 205.4 462.5 215.7 469.4 223.4C476.4 230.8 485.1 234.6 495.7 234.6C506 234.6 514.7 230.9 521.6 223.4C528.8 216 532.4 205.6 532.4 192.4ZM699 113.4C706.1 101.4 715 91.6 725.8 84C736.6 76.5 748.4 72.2 761.4 71.3L766.8 146.3L747.1 147.7C731.7 148.8 720.6 152.6 713.6 159.1C706.7 165.6 703.6 176.3 704.7 191.1L711 279.2L640.6 284.3L626.1 82.8L696.5 77.7L699 113.4ZM926.2 262.5L864.9 183.7L870.5 266.3L800.1 271.1L782.1 5.3L852.5 0.5L862.2 143.8L912.5 61L996.9 55.3L924.3 161.9L1011.9 256.6L926.2 262.5Z" fill="black"/>
<path fill-rule="evenodd" clip-rule="evenodd" d="M1020.7 287.2C1016.9 287.5 1015.8 292.9 1000.1 294.1L965.6 296.7L965.5 296.6L332.9 344.9C326 345.4 319.5 348.6 314.6 353.8L242.3 431.4V359.4C242.3 354.9 238.7 351.6 234.2 351.9L147.6 358.5L45.6 365.3C32.6 366.3 21.8 378.4 21.8 396.1C21.8 403.6 24 413.1 27.8 412.9C31.6 412.6 32.7 407.2 48.4 406L194.1 394.8C198.7 394.6 202.4 398.1 202.4 402.7V500.2C202.4 511.4 216 515.9 223.9 507.4L331.1 392.6C336 387.3 342.8 384 349.8 383.5L784.2 350.3L1002.9 334.8C1015.9 333.8 1026.7 321.7 1026.7 304C1026.6 296.4 1024.5 286.9 1020.7 287.2Z" fill="black"/>
</svg> 